<?xml version="1.0" standalone="no"?>
<!DOCTYPE svg PUBLIC "-//W3C//DTD SVG 20010904//EN"
 "http://www.w3.org/TR/2001/REC-SVG-20010904/DTD/svg10.dtd">
<svg version="1.0" xmlns="http://www.w3.org/2000/svg"
 width="315.000000pt" height="308.000000pt" viewBox="0 0 315.000000 308.000000"
 preserveAspectRatio="xMidYMid meet">
<metadata>
Created by potrace 1.12, written by Peter Selinger 2001-2015
</metadata>
<g transform="translate(0.000000,308.000000) scale(0.100000,-0.100000)"
fill="#000000" stroke="none">
<path d="M7 3074 c-4 -4 -7 -17 -7 -30 0 -19 31 -40 188 -130 232 -132 238
-136 263 -187 39 -76 22 -125 -101 -292 -158 -214 -258 -491 -279 -774 -43
-565 221 -1102 694 -1411 536 -350 1247 -327 1765 58 97 72 242 217 312 313
345 469 402 1084 149 1599 -208 422 -570 711 -1041 828 l-105 26 -915 3 c-504
2 -919 1 -923 -3z m1824 -364 c524 -107 904 -527 960 -1061 47 -446 -196 -909
-596 -1138 -288 -165 -656 -202 -961 -97 -238 82 -456 242 -594 437 -148 210
-220 438 -220 693 0 187 33 340 109 502 108 230 319 447 546 561 224 113 513
152 756 103z"/>
<path d="M1428 2025 c-92 -30 -180 -134 -229 -272 -30 -82 -37 -272 -15 -367
33 -141 119 -267 211 -311 62 -29 151 -32 213 -5 97 42 188 168 223 310 20 81
17 271 -5 344 -24 81 -70 169 -111 214 -74 83 -190 118 -287 87z"/>
<path d="M2232 1874 c-181 -90 -218 -433 -65 -614 82 -98 228 -89 310 18 137
179 93 511 -79 596 -65 33 -101 33 -166 0z"/>
</g>
</svg>
