<?xml version="1.0" standalone="no"?>
<!DOCTYPE svg PUBLIC "-//W3C//DTD SVG 20010904//EN"
 "http://www.w3.org/TR/2001/REC-SVG-20010904/DTD/svg10.dtd">
<svg version="1.0" xmlns="http://www.w3.org/2000/svg"
 width="315.000000pt" height="308.000000pt" viewBox="0 0 315.000000 308.000000"
 preserveAspectRatio="xMidYMid meet">
<metadata>
Created by potrace 1.12, written by Peter Selinger 2001-2015
</metadata>
<g transform="translate(0.000000,308.000000) scale(0.100000,-0.100000)"
fill="#000000" stroke="none">
<path d="M1345 3073 c-16 -2 -74 -13 -129 -24 -578 -120 -1050 -588 -1176
-1168 -146 -669 152 -1343 745 -1680 371 -212 838 -257 1249 -120 455 151 819
515 970 969 45 136 65 235 75 379 28 359 -76 731 -279 1006 -123 167 -140 216
-101 292 25 51 31 55 264 188 175 100 188 109 185 134 l-3 26 -885 1 c-487 1
-898 -1 -915 -3z m426 -363 c245 -50 431 -150 610 -329 184 -184 298 -405 339
-654 15 -91 12 -292 -5 -389 -74 -425 -382 -781 -799 -924 -246 -85 -538 -78
-792 18 -495 186 -819 702 -765 1217 56 532 433 951 956 1061 127 26 325 26
456 0z"/>
<path d="M1569 2026 c-117 -42 -196 -139 -245 -302 -22 -73 -25 -263 -5 -344
35 -142 126 -268 223 -310 62 -27 151 -24 213 5 92 44 178 170 211 311 22 95
15 285 -15 367 -76 214 -234 326 -382 273z"/>
<path d="M752 1874 c-210 -105 -212 -550 -3 -661 173 -91 349 106 328 370 -10
138 -70 247 -159 291 -65 33 -101 33 -166 0z"/>
</g>
</svg>
